<?xml version="1.0" standalone="no"?>
<!DOCTYPE svg PUBLIC "-//W3C//DTD SVG 20010904//EN"
 "http://www.w3.org/TR/2001/REC-SVG-20010904/DTD/svg10.dtd">
<svg version="1.0" xmlns="http://www.w3.org/2000/svg"
 width="193.000000pt" height="522.000000pt" viewBox="0 0 193.000000 522.000000"
 preserveAspectRatio="xMidYMid meet">

<g transform="translate(0.000000,522.000000) scale(0.100000,-0.100000)"
fill="#e5e5e5" stroke="none">
<path d="M877 5170 c-130 -33 -187 -135 -188 -334 0 -111 18 -181 65 -252 20
-31 24 -47 20 -76 -7 -42 26 -28 -330 -137 -306 -93 -352 -147 -341 -401 4
-86 -1 -194 -15 -345 -32 -352 -51 -1405 -27 -1459 15 -33 58 -50 106 -41 88
15 100 49 67 192 -14 59 -26 119 -26 133 0 23 88 440 147 690 19 84 74 503 75
578 1 44 18 -18 24 -88 4 -41 16 -127 26 -190 10 -63 31 -201 46 -306 l26
-191 -56 -154 c-30 -85 -65 -189 -75 -231 -71 -278 -44 -688 68 -1051 l37
-122 -10 -166 c-8 -144 -6 -219 18 -570 15 -222 29 -413 31 -424 5 -27 -4 -38
-40 -50 -32 -11 -77 -70 -73 -94 3 -14 28 -16 165 -19 l162 -2 5 42 c3 24 24
264 47 533 37 448 40 501 31 621 -12 148 6 392 52 734 14 102 30 232 37 290 6
58 15 109 20 114 10 11 13 -10 49 -304 49 -409 73 -686 65 -779 -10 -131 -6
-291 11 -471 9 -91 28 -304 42 -475 l27 -310 164 -3 164 -3 -7 33 c-8 40 -31
66 -75 84 l-34 14 7 103 c4 56 11 136 16 177 5 41 17 195 26 341 14 218 15
292 6 415 l-11 151 30 99 c47 159 98 427 111 581 13 165 1 347 -31 478 -20 80
-115 364 -132 396 -5 11 -5 38 1 69 12 65 75 512 90 640 6 52 13 96 15 98 7 8
14 -40 40 -268 14 -124 32 -252 39 -285 8 -33 46 -211 86 -395 l72 -335 -26
-107 c-14 -59 -26 -118 -26 -133 0 -63 113 -109 168 -68 l27 20 -1 579 c-1
489 -5 619 -23 839 -12 149 -19 326 -18 415 2 143 0 158 -20 196 -47 88 -123
127 -419 216 -110 33 -206 63 -213 67 -6 4 -14 24 -18 44 -4 27 0 42 15 62 57
72 83 223 63 354 -20 125 -63 196 -141 229 -43 18 -181 25 -233 12z"/>
</g>
</svg>
